HIERARCHY
ROOT Bip001_Pelvis
{
  OFFSET 34.4345 95.6767 -26.8758
  CHANNELS 6 Xposition Yposition Zposition Zrotation Xrotation Yrotation
  JOINT Bip001_Spine
  {
    OFFSET 1.4188e-005 10.2191 -0.0116013
    CHANNELS 3 Zrotation Xrotation Yrotation
    JOINT Bip001_L_Thigh
    {
      OFFSET 11.0458 -10.2192 0.0116197
      CHANNELS 3 Zrotation Xrotation Yrotation
      JOINT Bip001_L_Calf
      {
        OFFSET -0.707118 -44.0221 0.360014
        CHANNELS 3 Zrotation Xrotation Yrotation
        JOINT Bip001_L_Foot
        {
          OFFSET -0.651902 -40.5938 -3.56146
          CHANNELS 3 Zrotation Xrotation Yrotation
          JOINT Bip001_L_Toe0
          {
            OFFSET 0.0530839 -10.2181 13.1504
            CHANNELS 3 Zrotation Xrotation Yrotation
            End Site
            {
              OFFSET -1.02532e-005 0 7.55606
            }
          }
        }
      }
    }
    JOINT Bip001_R_Thigh
    {
      OFFSET -11.0458 -10.2191 0.0115893
      CHANNELS 3 Zrotation Xrotation Yrotation
      JOINT Bip001_R_Calf
      {
        OFFSET 0.706994 -44.0221 0.35984
        CHANNELS 3 Zrotation Xrotation Yrotation
        JOINT Bip001_R_Foot
        {
          OFFSET 0.651786 -40.5938 -3.5613
          CHANNELS 3 Zrotation Xrotation Yrotation
          JOINT Bip001_R_Toe0
          {
            OFFSET -0.0531479 -10.2181 13.1504
            CHANNELS 3 Zrotation Xrotation Yrotation
            End Site
            {
              OFFSET -1.02894e-005 0 7.55606
            }
          }
        }
      }
    }
    JOINT Bip001_Spine1
    {
      OFFSET 1.87041e-005 14.5736 1.08638
      CHANNELS 3 Zrotation Xrotation Yrotation
      JOINT Bip001_Spine2
      {
        OFFSET 2.24614e-005 14.5058 -1.69078
        CHANNELS 3 Zrotation Xrotation Yrotation
        JOINT Bip001_Neck
        {
          OFFSET 2.20278e-005 15.3945 -0.489414
          CHANNELS 3 Zrotation Xrotation Yrotation
          JOINT Bip001_L_Clavicle
          {
            OFFSET 6.06036 -0.000579998 0.00836775
            CHANNELS 3 Zrotation Xrotation Yrotation
            JOINT Bip001_L_UpperArm
            {
              OFFSET 11.5509 -0.0600302 0.00193952
              CHANNELS 3 Zrotation Xrotation Yrotation
              JOINT Bip001_L_Forearm
              {
                OFFSET 25.9523 0.0806089 -2.15551
                CHANNELS 3 Zrotation Xrotation Yrotation
                JOINT Bip001_L_Hand
                {
                  OFFSET 32.2475 0.153767 1.63968
                  CHANNELS 3 Zrotation Xrotation Yrotation
                  JOINT Bip001_L_Finger0
                  {
                    OFFSET 6.04639 -2.20976 5.90322
                    CHANNELS 3 Zrotation Xrotation Yrotation
                    End Site
                    {
                      OFFSET 4.22375 -1.43895 0.606485
                    }
                  }
                  JOINT Bip001_L_Finger1
                  {
                    OFFSET 11.0826 -0.704819 -0.198153
                    CHANNELS 3 Zrotation Xrotation Yrotation
                    End Site
                    {
                      OFFSET 6.20027 -0.397518 -0.0787166
                    }
                  }
                }
              }
            }
          }
          JOINT Bip001_R_Clavicle
          {
            OFFSET -6.06037 -0.000563197 0.00835105
            CHANNELS 3 Zrotation Xrotation Yrotation
            JOINT Bip001_R_UpperArm
            {
              OFFSET -11.5509 -0.0599978 0.00190698
              CHANNELS 3 Zrotation Xrotation Yrotation
              JOINT Bip001_R_Forearm
              {
                OFFSET -25.9523 0.0806822 -2.15589
                CHANNELS 3 Zrotation Xrotation Yrotation
                JOINT Bip001_R_Hand
                {
                  OFFSET -32.2475 0.153859 1.63989
                  CHANNELS 3 Zrotation Xrotation Yrotation
                  JOINT Bip001_R_Finger0
                  {
                    OFFSET -6.04641 -2.20976 5.90317
                    CHANNELS 3 Zrotation Xrotation Yrotation
                    End Site
                    {
                      OFFSET -4.22376 -1.43895 0.60647
                    }
                  }
                  JOINT Bip001_R_Finger1
                  {
                    OFFSET -11.0826 -0.704794 -0.198182
                    CHANNELS 3 Zrotation Xrotation Yrotation
                    End Site
                    {
                      OFFSET -6.20028 -0.397504 -0.0787333
                    }
                  }
                }
              }
            }
          }
          JOINT Bip001_Head
          {
            OFFSET 1.09673e-005 11.2744 2.05948
            CHANNELS 3 Zrotation Xrotation Yrotation
            End Site
            {
              OFFSET 2.89576e-005 20.8808 -2.77728e-005
            }
          }
        }
      }
    }
  }
}
MOTION
Frames:	6
Frame Time:	0.04
32.891 95.4771 -28.7275 -1.99649 -4.94294 0.280461 0.208545 2.8744 -0.527339 9.19007 0.612786 12.1604 -0.565651 11.6519 -8.96406 1.63344 -6.79733 0.0571335 1.23186 -5.65286 -0.363304 -2.12746 3.16625 -5.10567 -0.965131 7.34183 0.72657 -5.49219 -8.00725 1.03595 2.6464 -8.85953 2.74667 0.444722 5.76668 -1.06725 0.444721 5.76668 -1.06725 5.11398 -5.28348 -1.01535 -25.0911 7.45085 -5.1057 -58.0633 32.9948 3.73841 10.6481 -10.4239 -22.2678 7.3377 0.380937 -1.54842 -1.76556e-031 3.18055e-015 3.18055e-015 -4.77083e-015 -6.36111e-015 -0 16.2641 12.1906 20.2899 61.5191 28.1529 -5.18056 -25.1769 13.3955 16.441 3.32592 -6.37041 8.02142 6.36111e-015 0 -0 3.18055e-015 -3.18056e-015 1.59028e-015 -3.9871 0.782499 1.2148 
33.0515 95.4732 -28.7432 -1.83821 -4.84846 -0.210889 0.191588 2.87438 -0.570306 8.83574 0.767838 12.8522 -0.472277 11.402 -9.06853 1.90394 -6.60991 0.0571115 1.32786 -5.90241 -0.431296 -2.53938 2.78224 -4.66214 -0.83356 7.79758 0.807234 -5.45451 -8.15189 1.16681 2.64939 -8.87237 2.77972 0.4123 5.7467 -1.15222 0.409642 5.74671 -1.15235 5.57896 -4.37637 -0.776354 -25.2666 6.69584 -5.69482 -58.0554 32.8373 3.82642 10.4882 -10.1817 -22.2242 7.4342 0.380934 -1.56462 -4.77083e-015 -9.54166e-015 -3.18055e-015 -1.59028e-015 -9.54167e-015 -3.18055e-015 15.9677 11.2722 20.2615 60.9036 26.4737 -5.03571 -25.4202 14.1635 16.7844 1.46775 -7.04995 8.7629 -3.18055e-015 6.36111e-015 1.59028e-015 0 3.18056e-015 -0 -4.40218 -0.123037 1.67298 
33.2427 95.4926 -28.7915 -1.75618 -4.72834 -1.03999 0.202148 2.85443 -0.622279 8.54643 0.865576 13.4484 -0.423796 11.41 -8.49123 1.32664 -6.98564 0.0571562 1.2996 -5.55793 -0.451643 -2.94669 2.37226 -4.2112 -0.742648 8.07221 0.924853 -5.33214 -8.17343 1.54558 2.63496 -8.82559 2.76145 0.434449 5.70648 -1.25695 0.434702 5.70649 -1.25695 5.64525 -4.29463 -0.417192 -25.2843 6.75143 -5.97277 -57.6145 32.979 4.00094 10.158 -10.0513 -22.2524 7.08676 0.373828 -1.67888 3.53112e-031 3.18055e-015 -6.36111e-015 0 0 -6.36111e-015 16.0764 11.0749 19.7751 60.1999 24.7719 -4.78971 -25.0233 13.4973 16.3367 -0.876563 -7.70045 8.40375 -3.18055e-015 -3.18055e-015 1.59028e-015 -6.36111e-015 -6.36111e-015 3.18055e-015 -4.44761 0.0758486 2.0711 
33.5258 95.5167 -28.8451 -1.73733 -4.69148 -2.3801 0.20973 2.84368 -0.659173 8.22642 1.21282 14.2928 -0.369511 11.3577 -7.65312 0.268573 -7.73287 0.0572525 0.951231 -4.80711 -0.239258 -3.38158 1.8991 -3.69127 -0.729386 8.40926 1.17649 -5.15285 -8.17463 2.19585 2.62948 -8.82611 2.76661 0.45239 5.68477 -1.33125 0.453113 5.68477 -1.33124 5.34297 -4.46043 0.022057 -24.8963 7.04807 -6.14588 -57.0059 33.3022 4.12674 9.96251 -9.42345 -21.9026 6.5014 0.288873 -1.91745 1.59028e-015 3.18055e-015 -1.59028e-015 1.76556e-031 6.36111e-015 -1.59028e-015 16.7047 11.1052 19.1024 59.0095 21.8411 -4.28887 -23.4973 9.46107 15.1616 -1.44619 -7.71807 8.64595 3.18055e-015 0 -0 -0 0 3.18055e-015 -3.82334 0.882597 2.28389 
33.8982 95.5399 -28.9847 -1.71925 -4.44795 -4.10763 0.225499 2.7966 -0.695019 7.71473 1.50308 14.5705 -0.452778 11.002 -6.16471 0.0709995 -7.70837 0.0572492 0.891775 -4.74218 -0.187019 -3.82932 1.09852 -2.96516 -0.780815 8.69164 1.322 -4.89927 -7.97169 2.9241 2.68419 -9.04067 2.91487 0.486895 5.59016 -1.40355 0.485878 5.59013 -1.40358 5.02802 -4.40023 0.550732 -24.3262 7.15628 -6.49325 -56.5616 33.6799 4.33922 10.3181 -8.52503 -21.5748 4.8576 -0.126814 -1.86902 -1.59028e-015 -9.54166e-015 -0 -0 -6.36111e-015 -0 17.3812 10.8152 18.1557 57.7497 17.5113 -4.1209 -22.8309 6.46709 14.4298 -3.14302 -8.03846 9.4863 -4.77083e-015 -6.36111e-015 -6.36111e-015 -3.18055e-015 -9.54167e-015 -6.36111e-015 -3.02526 1.00365 2.52474 
34.2401 95.5331 -29.0725 -1.94792 -4.35617 -5.82903 0.323099 2.80721 -0.772201 7.38888 1.72412 15.2607 -0.57477 11.0498 -5.44013 1.75963 -7.11051 0.0653139 1.1233 -5.53903 -0.263362 -4.05479 0.403112 -2.31079 -0.93668 9.12498 1.39171 -4.47198 -7.99203 3.95401 2.68445 -9.04507 2.9188 0.685336 5.60977 -1.56307 0.685337 5.60977 -1.56307 4.9308 -4.25527 1.00975 -24.0192 7.14004 -6.75808 -56.1002 34.2063 4.4856 10.826 -7.58078 -21.2305 3.85764 -0.157212 -1.8035 3.18055e-015 3.18055e-015 -1.59028e-015 4.77083e-015 3.18056e-015 -0 17.6911 10.4228 17.2668 56.103 11.2602 -5.43289 -23.8264 7.25536 16.7232 -7.35447 -8.02387 9.15063 -1.59028e-015 0 3.18055e-015 1.59028e-015 -3.18056e-015 -0 -2.52325 0.897032 2.83779 
